<svg xmlns="http://www.w3.org/2000/svg" width="30" height="30">
    <path fill="#68D4F8" d="M29.915 13.415c.054.52.085 1.05.085 1.585 0 8.284-6.716 15-15 15-.536 0-1.064-.03-1.585-.085L.085 16.585A15.08 15.08 0 0 1 0 15C0 6.716 6.716 0 15 0c.536 0 1.064.03 1.585.085l13.33 13.33z"></path>
    <path fill="#FFF" d="M14.14 29.957C6.526 29.524.446 23.427.04 15.804l5.563-5.59a.76.76 0 0 1 .514-.206h3.89l.004 8.925c0 .594.487 1.08 1.06 1.057l8.91-.012v3.905c0 .19-.075.382-.207.514l-5.632 5.56z"></path>
    <path fill="#217AB7" d="M24.207 19.772a.738.738 0 0 1-.514.206h-3.7l-.004-8.894c0-.594-.487-1.08-1.08-1.08l-8.903-.01V6.306c0-.19.073-.38.205-.514L15.958.048c7.513.476 13.51 6.47 13.993 13.98l-5.742 5.744z"></path>
</svg>